# xmcd
#
# Track frame offsets: 
#        150
#        17498
#        31152
#        43657
#        59116
#        76641
#        88544
#        100447
#        117098
#        132640
#
# Disc length: 1895 seconds
#
# Revision: 3
# Processed by: cddbd v1.5.2PL0 Copyright (c) Steve Scherf et al.
# Submitted via: ExactAudioCopy v0.99pb5
#
DISCID=7b07650a
DTITLE=Johnny Paycheck - Survivor
DYEAR=2001
DGENRE=Country
TTITLE0=I'm A Survivor
TTITLE1=I Can't Quit Drinking
TTITLE2=He Left It All
TTITLE3=I.O.U Blues
TTITLE4=Everything Is Changing
TTITLE5=Palimony
TTITLE6=You're Every Step I Take
TTITLE7=I've Never Got Over You
TTITLE8=Buried Treasures
TTITLE9=Ole Pay Ain't Checked Out Yet
EXTD=
EXTT0=
EXTT1=
EXTT2=
EXTT3=
EXTT4=
EXTT5=
EXTT6=
EXTT7=
EXTT8=
EXTT9=
PLAYORDER=
